<?xml version="1.0" encoding="utf-8"?>
<!-- Generator: Adobe Illustrator 16.0.0, SVG Export Plug-In . SVG Version: 6.00 Build 0)  -->
<!DOCTYPE svg PUBLIC "-//W3C//DTD SVG 1.1//EN" "http://www.w3.org/Graphics/SVG/1.1/DTD/svg11.dtd">
<svg version="1.1" id="Layer_1" xmlns="http://www.w3.org/2000/svg" xmlns:xlink="http://www.w3.org/1999/xlink" x="0px" y="0px"
	 width="191px" height="126.25px" viewBox="0 0 191 126.25" enable-background="new 0 0 191 126.25" xml:space="preserve">
<g>
	<g>
		<defs>
			<rect id="SVGID_1_" x="3.077" y="3.304" width="185.788" height="120.358"/>
		</defs>
		<clipPath id="SVGID_2_">
			<use xlink:href="#SVGID_1_"  overflow="visible"/>
		</clipPath>
		<path clip-path="url(#SVGID_2_)" fill="#594A42" d="M155.204,31.035c0,0,41.227,8.797,32.431,50.025l-9.091,42.602L48.185,95.846
			c0,0-41.229-8.796-32.431-50.023L24.741,3.69c0,0,0.102-0.471,0.575-0.372L155.204,31.035z"/>
	</g>
	<g>
		<defs>
			<rect id="SVGID_3_" x="3.077" y="3.304" width="185.788" height="120.358"/>
		</defs>
		<clipPath id="SVGID_4_">
			<use xlink:href="#SVGID_3_"  overflow="visible"/>
		</clipPath>
		<path clip-path="url(#SVGID_4_)" fill="#FFF200" d="M144.911,34.263c0,0,41.955,4.087,37.873,46.042l-4.225,43.356L45.895,110.745
			c0,0-41.957-4.089-37.871-46.046l4.175-42.875c0,0,0.045-0.481,0.527-0.434L144.911,34.263z"/>
	</g>
	<g>
		<defs>
			<rect id="SVGID_5_" x="3.077" y="3.304" width="185.788" height="120.358"/>
		</defs>
		<clipPath id="SVGID_6_">
			<use xlink:href="#SVGID_5_"  overflow="visible"/>
		</clipPath>
		<path clip-path="url(#SVGID_6_)" fill="#41AD49" d="M136.37,37.945c0,0,42.156,0,42.156,42.157v43.561H45.234
			c0,0-42.156,0-42.156-42.153V38.426c0,0,0-0.481,0.481-0.481H136.37z"/>
	</g>
	<g>
		<defs>
			<rect id="SVGID_7_" x="3.077" y="3.304" width="185.788" height="120.358"/>
		</defs>
		<clipPath id="SVGID_8_">
			<use xlink:href="#SVGID_7_"  overflow="visible"/>
		</clipPath>
		<path clip-path="url(#SVGID_8_)" fill="#FFFFFF" d="M27.36,70.87h5.786v2.894c1.335-1.715,3.084-3.273,6.018-3.273
			c2.667,0,4.683,1.183,5.75,3.238c1.789-2.096,3.921-3.238,6.701-3.238c4.302,0,6.891,2.592,6.891,7.503v13.291H52.72V79.896
			c0-2.741-1.219-4.15-3.389-4.15c-2.172,0-3.504,1.409-3.504,4.15v11.388h-5.788V79.896c0-2.741-1.218-4.15-3.391-4.15
			c-2.167,0-3.503,1.409-3.503,4.15v11.388h-5.786L27.36,70.87L27.36,70.87z"/>
	</g>
	<g>
		<defs>
			<rect id="SVGID_9_" x="3.077" y="3.304" width="185.788" height="120.358"/>
		</defs>
		<clipPath id="SVGID_10_">
			<use xlink:href="#SVGID_9_"  overflow="visible"/>
		</clipPath>
		<path clip-path="url(#SVGID_10_)" fill="#FFFFFF" d="M75.602,84.086v-1.029c-0.989-0.457-2.284-0.761-3.696-0.761
			c-2.473,0-3.995,0.99-3.995,2.815v0.074c0,1.563,1.294,2.479,3.159,2.479C73.772,87.665,75.602,86.178,75.602,84.086
			 M62.312,85.418V85.34c0-4.456,3.389-6.512,8.228-6.512c2.054,0,3.538,0.341,4.984,0.84v-0.344c0-2.397-1.486-3.731-4.376-3.731
			c-2.208,0-3.77,0.419-5.638,1.103l-1.446-4.415c2.248-0.99,4.455-1.638,7.919-1.638c3.162,0,5.445,0.838,6.894,2.283
			c1.523,1.526,2.21,3.77,2.21,6.514v11.845h-5.599v-2.209c-1.41,1.56-3.351,2.587-6.168,2.587
			C65.474,91.661,62.312,89.452,62.312,85.418"/>
	</g>
</g>
<path fill="#FFFFFF" d="M86.339,70.87h5.791v20.413h-5.791V70.87z M86.187,63.482h6.093v5.143h-6.093V63.482z"/>
<g>
	<g>
		<defs>
			<rect id="SVGID_11_" x="3.077" y="3.304" width="185.788" height="120.358"/>
		</defs>
		<clipPath id="SVGID_12_">
			<use xlink:href="#SVGID_11_"  overflow="visible"/>
		</clipPath>
		<path clip-path="url(#SVGID_12_)" fill="#FFFFFF" d="M95.971,88.578l2.476-3.811c2.207,1.604,4.529,2.441,6.436,2.441
			c1.676,0,2.436-0.615,2.436-1.525v-0.078c0-1.256-1.978-1.674-4.225-2.357c-2.857-0.838-6.095-2.17-6.095-6.133v-0.077
			c0-4.147,3.351-6.472,7.465-6.472c2.589,0,5.405,0.875,7.614,2.358l-2.209,3.999c-2.016-1.18-4.037-1.9-5.52-1.9
			c-1.41,0-2.134,0.604-2.134,1.408v0.073c0,1.144,1.938,1.677,4.151,2.437c2.854,0.953,6.168,2.324,6.168,6.058v0.074
			c0,4.534-3.389,6.588-7.807,6.588C101.872,91.661,98.675,90.712,95.971,88.578"/>
	</g>
	<g>
		<defs>
			<rect id="SVGID_13_" x="3.077" y="3.304" width="185.788" height="120.358"/>
		</defs>
		<clipPath id="SVGID_14_">
			<use xlink:href="#SVGID_13_"  overflow="visible"/>
		</clipPath>
		<path clip-path="url(#SVGID_14_)" fill="#FFFFFF" d="M116.534,84.086V70.867h5.785v11.39c0,2.739,1.297,4.151,3.504,4.151
			c2.209,0,3.619-1.412,3.619-4.151v-11.39h5.785v20.414h-5.785v-2.896c-1.334,1.716-3.048,3.274-5.982,3.274
			C119.083,91.661,116.534,88.768,116.534,84.086"/>
	</g>
	<g>
		<defs>
			<rect id="SVGID_15_" x="3.077" y="3.304" width="185.788" height="120.358"/>
		</defs>
		<clipPath id="SVGID_16_">
			<use xlink:href="#SVGID_15_"  overflow="visible"/>
		</clipPath>
		<path clip-path="url(#SVGID_16_)" fill="#FFFFFF" d="M140.255,84.086V70.867h5.787v11.39c0,2.739,1.297,4.151,3.5,4.151
			c2.212,0,3.619-1.412,3.619-4.151v-11.39h5.787v20.414h-5.787v-2.896c-1.332,1.716-3.047,3.274-5.979,3.274
			C142.805,91.661,140.255,88.768,140.255,84.086"/>
	</g>
</g>
</svg>
